<svg xmlns="http://www.w3.org/2000/svg" width="82" height="54" viewBox="0 0 82 54" fill="none"><g id="fw-vertical-web-logo-mark-full-colour-rgb 1" clip-path="url(#clip0_62_6298)"><g id="full-rgb"><g id="logoMark"><path id="logoMark &lt;PathItem&gt;" d="M72.8665 11.676H0.376465V0H81.6235L72.8665 11.676Z" fill="#2BB0E6"></path><path id="logoMark &lt;PathItem&gt;_2" d="M22.4257 42.139C19.6756 42.136 17.039 41.0421 15.0944 39.0975C13.1498 37.1529 12.056 34.5163 12.0529 31.7662V31.6938H0.376465V31.7662C0.376465 37.6141 2.6995 43.2224 6.83453 47.3574C10.9696 51.4924 16.5779 53.8154 22.4257 53.8154C28.2735 53.8154 33.8818 51.4924 38.0168 47.3574C42.1518 43.2224 44.4749 37.6141 44.4749 31.7662H32.7985C32.7954 34.5163 31.7015 37.1529 29.7569 39.0975C27.8123 41.0421 25.1758 42.136 22.4257 42.139Z" fill="#2BB0E6"></path><path id="logoMark &lt;PathItem&gt;_3" d="M60.4795 27.6001L69.4695 15.9241H0.376465V27.6981L60.4795 27.6001Z" fill="#2BB0E6"></path></g></g></g><defs><clipPath id="clip0_62_6298"><rect width="81.2469" height="53.8154" fill="white" transform="translate(0.376465)"></rect></clipPath></defs></svg>