<svg xmlns="http://www.w3.org/2000/svg" width="355" height="38" viewBox="0 0 355 38" fill="none"><g clip-path="url(#clip0_68_6381)"><path d="M170.5 30.71C168.766 31.1865 166.922 31.0648 165.265 30.3644C163.609 29.6641 162.237 28.426 161.37 26.85C160.313 24.9684 160.025 22.751 160.565 20.6617C161.106 18.5723 162.433 16.7729 164.27 15.64C165.221 15.0612 166.286 14.6934 167.391 14.5613C168.497 14.4292 169.618 14.536 170.679 14.8744C171.74 15.2129 172.715 15.775 173.54 16.523C174.365 17.271 175.02 18.1873 175.46 19.21C175.698 19.7434 175.892 20.2952 176.04 20.86C176.165 21.5215 176.255 22.1891 176.31 22.86C176.338 24.6213 175.783 26.3424 174.733 27.7564C173.682 29.1703 172.194 30.198 170.5 30.68M182.71 1.39C182.71 0.389999 182.36 -9.76585e-06 181.48 -0.0100098C180.1 -0.0100098 178.73 -0.0100098 177.36 -0.0100098C176.42 -0.0100098 176.3 0.269989 176.36 1.26999C176.36 1.32999 176.36 11.81 176.36 11.88C176.36 11.95 176.28 12.13 176.04 11.88C174.886 10.7342 173.478 9.87757 171.93 9.37999C169.693 8.53216 167.251 8.3891 164.93 8.97C161.874 9.45931 159.111 11.071 157.18 13.49C155.679 15.3853 154.667 17.6207 154.232 19.9992C153.798 22.3777 153.955 24.8265 154.69 27.13C156.41 33.19 161.2 36.36 166.91 36.87C168.477 37.0629 170.066 36.9144 171.57 36.4345C173.073 35.9546 174.455 35.1548 175.62 34.09C175.688 34.0244 175.771 33.975 175.861 33.9456C175.951 33.9162 176.046 33.9074 176.14 33.92C176.27 33.97 176.38 34.21 176.41 34.38C176.43 34.5995 176.43 34.8205 176.41 35.04C176.41 35.97 176.78 36.36 177.7 36.37C178.62 36.38 179.62 36.37 180.58 36.37C182.58 36.37 182.67 36.27 182.67 34.37V11.09C182.67 10.96 182.67 4.26 182.67 1.41" fill="black"></path><path d="M109.69 30.7101C107.956 31.1866 106.112 31.0648 104.455 30.3645C102.799 29.6641 101.427 28.4261 100.56 26.8501C99.5031 24.9685 99.2147 22.7511 99.7552 20.6617C100.296 18.5724 101.623 16.773 103.46 15.6401C104.41 15.0666 105.472 14.703 106.574 14.5738C107.677 14.4445 108.794 14.5526 109.851 14.8907C110.908 15.2289 111.88 15.7893 112.703 16.5342C113.526 17.2792 114.179 18.1916 114.62 19.2101C114.859 19.7419 115.05 20.2941 115.19 20.8601C115.34 21.5201 115.38 22.2101 115.47 22.8601C115.498 24.6213 114.943 26.3425 113.893 27.7564C112.842 29.1704 111.354 30.1981 109.66 30.6801M121.87 10.9401C121.87 9.94007 121.52 9.79005 120.63 9.77005C119.26 9.77005 117.89 9.77005 116.51 9.77005C115.72 9.77005 115.51 9.77006 115.51 10.4201C115.51 10.5701 115.51 11.5001 115.51 11.7401C115.51 11.9801 115.51 12.0501 115.2 11.7401C114.206 10.7556 113.008 10.0013 111.69 9.53006C109.275 8.59662 106.636 8.40172 104.11 8.97006C101.052 9.45474 98.2874 11.0674 96.3601 13.4901C94.8572 15.3845 93.8432 17.6194 93.4072 19.9979C92.9713 22.3765 93.1268 24.8257 93.8601 27.1301C95.5801 33.1901 100.38 36.3701 106.09 36.8701C107.663 37.0588 109.259 36.9054 110.767 36.4204C112.276 35.9355 113.662 35.1303 114.83 34.0601C114.896 33.9947 114.977 33.9453 115.065 33.9158C115.154 33.8864 115.248 33.8776 115.34 33.8901C115.48 33.9401 115.58 34.1801 115.62 34.3501C115.645 34.5693 115.645 34.7908 115.62 35.0101C115.62 35.9401 115.99 36.3301 116.92 36.3501H119.8C121.8 36.3501 121.89 36.2401 121.89 34.3501C121.89 26.0901 121.89 13.8001 121.89 10.9601" fill="black"></path><path d="M186.17 2.40008C187.08 0.650075 189.96 0.400075 191.04 1.40008C192.63 2.98008 191.84 5.40008 186.33 8.34008C185.99 8.52008 185.59 8.18008 185.57 7.80008C185.57 6.55008 185.52 3.25008 186.17 2.36008" fill="black"></path><path d="M30.13 2.40008C31.05 0.650075 33.93 0.400075 35.01 1.40008C36.6 2.98008 35.8 5.40008 30.3 8.34008C29.96 8.52008 29.56 8.18008 29.54 7.80008C29.54 6.55008 29.54 3.25008 30.13 2.36008" fill="black"></path><path d="M125.62 22.96V11.21C125.62 10.21 125.92 9.94002 126.95 9.93002C127.98 9.92002 129.17 9.93002 130.28 9.93002C131.39 9.93002 131.8 10.26 131.84 11.39C131.82 11.5293 131.82 11.6708 131.84 11.81C131.84 11.99 131.97 12.25 132.1 12.3C132.303 12.3133 132.503 12.249 132.66 12.12C133.496 11.4877 134.368 10.9034 135.27 10.37C137.519 9.24092 140.067 8.85237 142.55 9.26003C144.31 9.47266 145.992 10.1111 147.45 11.12C149.293 12.4314 150.555 14.4067 150.97 16.63C151.49 19.6843 151.691 22.7842 151.57 25.88C151.57 28.88 151.57 31.81 151.57 34.77C151.585 34.9898 151.585 35.2103 151.57 35.43C151.557 35.6419 151.47 35.8424 151.324 35.9961C151.177 36.1498 150.981 36.2468 150.77 36.27C150.559 36.3081 150.345 36.3315 150.13 36.34C148.83 36.34 147.52 36.34 146.21 36.34C145.26 36.34 144.85 36.11 144.84 34.95C144.84 30.7 144.84 26.45 144.84 22.2C144.84 20.76 144.84 15.25 138.57 15.25C135.38 15.25 132.26 17.95 132.26 22.25C132.26 26.87 132.26 29.86 132.26 34.48C132.26 34.72 132.26 34.96 132.26 35.2C132.26 35.97 131.95 36.33 131.16 36.36C129.69 36.41 128.22 36.42 126.76 36.36C125.98 36.36 125.68 35.95 125.68 35.13V22.96" fill="black"></path><path d="M195.62 14.28C194.662 14.2714 193.723 14.5462 192.92 15.07C192.651 15.2571 192.434 15.5093 192.289 15.8031C192.144 16.0969 192.075 16.4226 192.09 16.75V16.85C192.16 18.42 194.79 19.11 197.84 19.9L198.41 20.05C203.21 21.27 207.68 23.05 207.88 27.89V27.99C207.979 29.2668 207.763 30.5485 207.251 31.7221C206.738 32.8957 205.944 33.9252 204.94 34.72C202.708 36.3377 200.017 37.1997 197.26 37.18H196.62C192.914 37.1649 189.315 35.9394 186.37 33.69C185.54 32.98 185.73 29.23 185.73 28.46C185.723 28.288 185.768 28.1178 185.859 27.9716C185.95 27.8254 186.082 27.7098 186.24 27.6398C186.397 27.5697 186.572 27.5485 186.741 27.5789C186.91 27.6092 187.067 27.6897 187.19 27.81C190.069 30.0075 193.569 31.2395 197.19 31.33C198.224 31.4097 199.26 31.2094 200.19 30.75C200.495 30.5488 200.741 30.271 200.904 29.9445C201.067 29.618 201.142 29.2543 201.12 28.89V28.78C201.05 27.1 198.5 26.23 195.55 25.51L194.87 25.34C190.37 24.34 186.3 22.85 185.59 17.7V17.6C185.484 16.4374 185.65 15.2661 186.073 14.1782C186.496 13.0902 187.166 12.1153 188.03 11.33C190.134 9.57952 192.794 8.63951 195.53 8.67997H196.3C199.546 8.59704 202.746 9.46987 205.5 11.19C206.5 11.74 206.14 15.65 206.14 16.42C206.14 17.19 205.39 17.51 204.68 17.08C199.38 13.81 195.6 14.27 195.6 14.27" fill="black"></path><path d="M90.62 18.49V34.8C90.62 36.4 90.48 36.56 88.87 36.57C87.87 36.57 86.76 36.57 85.71 36.57C84.46 36.57 84.24 36.3 84.21 35.06V2.62996C84.21 0.839959 84.3 0.729971 86.13 0.719971C87.13 0.719971 88.19 0.719971 89.22 0.719971C90.25 0.719971 90.62 0.979959 90.62 2.12996C90.62 4.85996 90.62 7.59997 90.62 10.34V18.49Z" fill="black"></path><path d="M64.2 18.48V34.54C64.2 36.14 64.05 36.3 62.44 36.31H59.29C58.04 36.31 57.82 36.04 57.79 34.81C57.79 34.65 57.79 34.49 57.79 34.34V2.61996C57.79 0.839965 57.88 0.729971 59.7 0.719971C60.7 0.719971 61.76 0.719971 62.8 0.719971C63.84 0.719971 64.19 0.979959 64.19 2.12996C64.19 4.85996 64.19 7.59997 64.19 10.33L64.2 18.48Z" fill="black"></path><path d="M26.1298 0.720025C26.7898 0.720025 27.0598 0.980025 27.1298 1.11002C27.1593 1.32965 27.1019 1.55211 26.9698 1.73002C23.9698 5.93002 20.9698 9.73002 17.9698 13.9C17.1198 15.08 16.3098 16.28 15.4698 17.46C15.3362 17.6042 15.2621 17.7935 15.2621 17.99C15.2621 18.1865 15.3362 18.3758 15.4698 18.52C18.6898 23.11 21.9098 28.13 25.1398 32.71C25.7498 33.58 26.4298 34.4 27.0398 35.25C27.1175 35.3414 27.174 35.4489 27.2051 35.5648C27.2363 35.6806 27.2413 35.802 27.2198 35.92C27.1486 36.024 27.0569 36.1123 26.9503 36.1794C26.8436 36.2465 26.7243 36.2909 26.5998 36.31C25.9698 36.39 22.3098 36.36 21.1898 36.31C20.8499 36.3252 20.5103 36.2742 20.1898 36.16C19.7807 36.0154 19.4297 35.7416 19.1898 35.38C16.6198 31.74 14.0298 27.69 11.4898 24.04C10.2098 22.21 9.24978 20.68 8.00978 18.82C7.85312 18.5976 7.76904 18.3321 7.76904 18.06C7.76904 17.7879 7.85312 17.5225 8.00978 17.3C9.84978 14.63 11.3398 12.3 13.1898 9.59002C15.0398 6.88002 17.1898 4.44002 19.1898 1.64002C19.6698 0.970023 19.8698 0.640025 20.6898 0.720025C21.5098 0.800025 25.4398 0.720025 26.0998 0.720025" fill="black"></path><path d="M6.78965 18.48V34.54C6.78965 36.14 6.64965 36.3 5.03965 36.31H1.87965C0.639654 36.31 0.409648 36.04 0.389648 34.81C0.389648 34.65 0.389648 34.49 0.389648 34.34V2.61996C0.389648 0.839965 0.479654 0.729971 2.30965 0.719971C3.30965 0.719971 4.36965 0.719971 5.39965 0.719971C6.42965 0.719971 6.79965 0.979959 6.79965 2.12996C6.79965 4.85996 6.79965 7.59997 6.79965 10.33V18.48" fill="black"></path><path d="M80.83 10.0901C81.06 10.0901 81.4 10.2001 81.48 10.3501C81.56 10.5001 81.39 10.8201 81.26 11.0001C78.49 14.6501 75.72 17.8501 72.95 21.4801C72.32 22.3101 72.34 22.3101 72.95 23.1701C74.88 25.9401 77.23 29.1701 79.16 31.9001C80 33.0901 80.41 33.6001 81.25 34.7801C81.37 34.9401 82.25 36.3301 80.74 36.3301C79.69 36.3301 79.2 36.3301 78.15 36.3301H75.53C75.2417 36.3475 74.9541 36.287 74.6972 36.1551C74.4404 36.0231 74.2237 35.8245 74.07 35.5801C71.32 31.5801 68.15 27.2201 65.36 23.2901C65.1358 23.0479 65.0112 22.7301 65.0112 22.4001C65.0112 22.0701 65.1358 21.7522 65.36 21.5101C66.98 19.3201 68.56 17.5101 70.18 15.3401C71.3 13.8201 72.46 12.3401 73.57 10.8201C73.7551 10.5663 74.002 10.3642 74.2874 10.2329C74.5727 10.1016 74.8869 10.0456 75.2 10.0701C76.2 10.0701 79.4 10.0701 80.8 10.0701" fill="black"></path><path d="M29.3301 22.9201V11.0901C29.3301 10.0901 29.5101 9.84008 30.4801 9.83008C31.9201 9.83008 32.9901 9.83008 34.4801 9.83008C35.4801 9.83008 35.4801 10.3401 35.5701 10.7501C35.5803 10.9499 35.5803 11.1502 35.5701 11.3501V34.6101C35.5701 36.1601 35.4501 36.2801 33.9101 36.2901C32.8409 36.3501 31.7692 36.3501 30.7001 36.2901C29.4901 36.2201 29.3501 36.1501 29.3501 34.9301C29.3501 30.9301 29.3501 26.9301 29.3501 22.9301L29.3301 22.9201Z" fill="black"></path><path d="M55.1299 10.41C55.1299 9.32005 51.3599 9.05005 48.6299 10.41C47.7475 10.9484 46.8962 11.536 46.0799 12.17C45.9199 12.27 45.6699 12.4 45.5299 12.34C45.3899 12.28 45.3099 12.04 45.2699 11.85C45.2498 11.7141 45.2498 11.576 45.2699 11.44C45.2699 10.31 44.9099 9.99005 43.7399 9.97005H40.4699C39.4699 9.97005 39.1699 10.27 39.1699 11.26C39.1699 15.26 39.1699 19.01 39.1699 23C39.1699 26.99 39.1699 31 39.1699 35.08C39.1699 35.9 39.4699 36.27 40.2299 36.29C41.6699 36.29 43.1099 36.34 44.5499 36.29C45.3299 36.29 45.5499 35.9 45.6299 35.13C45.6299 34.89 45.6299 34.65 45.6299 34.42C45.6299 29.79 45.6299 26.86 45.6299 22.24C45.6299 17.99 48.2299 15.97 51.6299 15.71C52.5113 15.638 53.3958 15.6113 54.2799 15.63C54.4516 15.6492 54.6245 15.6077 54.7688 15.5127C54.9131 15.4178 55.0196 15.2753 55.0699 15.11C55.2362 13.5391 55.273 11.9571 55.1799 10.38" fill="black"></path><path d="M251.49 0.689941H247.76C247.42 0.689941 247.095 0.824788 246.855 1.06483C246.615 1.30488 246.48 1.63046 246.48 1.96994V15.3699H229.97V1.96994C229.971 1.80232 229.939 1.63609 229.876 1.48085C229.813 1.32561 229.72 1.18444 229.602 1.06544C229.483 0.946453 229.343 0.852 229.188 0.787552C229.034 0.723104 228.868 0.689936 228.7 0.689941H224.97C224.63 0.689941 224.305 0.824788 224.065 1.06483C223.825 1.30488 223.69 1.63046 223.69 1.96994V34.9699C223.69 35.3094 223.825 35.635 224.065 35.875C224.305 36.1151 224.63 36.2499 224.97 36.2499H228.7C228.868 36.2499 229.034 36.2168 229.188 36.1523C229.343 36.0879 229.483 35.9934 229.602 35.8744C229.72 35.7554 229.813 35.6143 229.876 35.459C229.939 35.3038 229.971 35.1376 229.97 34.9699V21.3999H246.48V34.9899C246.48 35.3294 246.615 35.655 246.855 35.895C247.095 36.1351 247.42 36.2699 247.76 36.2699H251.49C251.658 36.2699 251.824 36.2368 251.978 36.1723C252.133 36.1079 252.273 36.0134 252.392 35.8944C252.51 35.7754 252.603 35.6343 252.666 35.479C252.729 35.3238 252.761 35.1575 252.76 34.9899V1.98993C252.761 1.82231 252.729 1.65609 252.666 1.50085C252.603 1.34561 252.51 1.20443 252.392 1.08543C252.273 0.966442 252.133 0.872004 251.978 0.807556C251.824 0.743108 251.658 0.709925 251.49 0.70993" fill="black"></path><path d="M269.62 31.03C268.569 31.0096 267.533 30.7797 266.573 30.354C265.612 29.9283 264.746 29.3152 264.025 28.5507C263.305 27.7862 262.744 26.8856 262.375 25.9016C262.007 24.9176 261.838 23.8699 261.88 22.82V22.73C261.88 18.07 265.17 14.56 269.53 14.56C270.584 14.5885 271.622 14.825 272.585 15.2561C273.547 15.6872 274.415 16.3044 275.138 17.072C275.861 17.8397 276.425 18.7427 276.798 19.7291C277.17 20.7156 277.345 21.766 277.31 22.82V22.91C277.31 27.54 274.01 31.03 269.62 31.03ZM269.62 8.81004C267.776 8.79132 265.947 9.14066 264.24 9.83759C262.533 10.5345 260.982 11.565 259.679 12.8688C258.375 14.1726 257.344 15.7234 256.647 17.4304C255.95 19.1374 255.601 20.9663 255.62 22.81V22.9C255.632 26.6131 257.118 30.1693 259.752 32.7864C261.056 34.0822 262.603 35.1085 264.304 35.8066C266.005 36.5047 267.826 36.8609 269.665 36.855C271.503 36.8491 273.323 36.4812 275.019 35.7721C276.715 35.0631 278.255 34.0269 279.551 32.7227C280.847 31.4185 281.873 29.8718 282.571 28.171C283.27 26.4702 283.626 24.6485 283.62 22.81V22.72C283.636 20.8808 283.284 19.0568 282.586 17.3554C281.887 15.654 280.855 14.1095 279.55 12.8126C278.246 11.5157 276.696 10.4927 274.99 9.80358C273.285 9.1145 271.459 8.77331 269.62 8.80004" fill="black"></path><path d="M315.79 8.81003C314.18 8.77419 312.582 9.10172 311.116 9.76825C309.649 10.4348 308.352 11.4232 307.32 12.66C306.471 11.5916 305.416 10.7046 304.218 10.0516C303.02 9.39866 301.703 8.99297 300.345 8.85867C298.987 8.72437 297.616 8.86417 296.313 9.2698C295.01 9.67544 293.802 10.3386 292.76 11.22V10.6C292.76 10.2632 292.626 9.94017 292.388 9.70199C292.15 9.46382 291.827 9.33003 291.49 9.33003H287.86C287.692 9.32871 287.526 9.36058 287.371 9.42381C287.216 9.48704 287.075 9.58038 286.956 9.69844C286.837 9.8165 286.742 9.95695 286.678 10.1117C286.613 10.2664 286.58 10.4324 286.58 10.6V34.99C286.58 35.3295 286.715 35.6551 286.955 35.8951C287.195 36.1352 287.521 36.27 287.86 36.27H291.49C291.658 36.27 291.824 36.2369 291.978 36.1724C292.133 36.108 292.274 36.0135 292.392 35.8945C292.51 35.7755 292.603 35.6343 292.666 35.4791C292.73 35.3239 292.761 35.1576 292.76 34.99V21.09C292.76 17.38 295.08 14.68 298.28 14.68C301.48 14.68 303.28 16.86 303.28 20.68V34.99C303.279 35.1576 303.311 35.3239 303.374 35.4791C303.437 35.6343 303.53 35.7755 303.648 35.8945C303.767 36.0135 303.907 36.108 304.062 36.1724C304.217 36.2369 304.382 36.27 304.55 36.27H308.13C308.47 36.27 308.795 36.1352 309.035 35.8951C309.275 35.6551 309.41 35.3295 309.41 34.99V20.93C309.41 17.18 311.61 14.66 314.88 14.66C317.19 14.66 319.93 15.71 319.93 20.74V34.99C319.929 35.1576 319.961 35.3239 320.024 35.4791C320.087 35.6343 320.18 35.7755 320.298 35.8945C320.417 36.0135 320.557 36.108 320.712 36.1724C320.867 36.2369 321.032 36.27 321.2 36.27H324.84C325.008 36.27 325.174 36.2369 325.328 36.1724C325.483 36.108 325.624 36.0135 325.742 35.8945C325.86 35.7755 325.953 35.6343 326.016 35.4791C326.08 35.3239 326.111 35.1576 326.11 34.99V19.89C326.11 13.16 322.06 8.81003 315.78 8.81003" fill="black"></path><path d="M341.88 14.4201C346.2 14.4201 347.68 17.8501 348.18 20.0801H335.48C336.34 16.6901 338.83 14.4201 341.88 14.4201ZM341.98 8.81006C334.7 8.81006 328.98 14.9601 328.98 22.8101C328.98 30.6601 334.76 36.8101 342.43 36.8101C344.521 36.8567 346.596 36.4315 348.501 35.5658C350.405 34.7002 352.09 33.4165 353.43 31.8101C353.654 31.5575 353.769 31.2269 353.75 30.8901C353.728 30.5536 353.578 30.2384 353.33 30.0101L351.07 28.0101C350.82 27.7929 350.497 27.6793 350.166 27.6923C349.835 27.7053 349.522 27.844 349.29 28.0801C348.453 29.0522 347.413 29.829 346.243 30.356C345.074 30.8829 343.803 31.1471 342.52 31.1301C340.882 31.1583 339.284 30.6206 337.996 29.6078C336.708 28.5949 335.809 27.1688 335.45 25.5701H353.28C353.614 25.5893 353.942 25.4762 354.192 25.2553C354.443 25.0344 354.597 24.7235 354.62 24.3901C354.67 23.7701 354.67 23.3901 354.67 23.0101C354.67 14.6501 349.47 8.81006 342.03 8.81006" fill="black"></path></g><defs><clipPath id="clip0_68_6381"><rect width="354.24" height="37.19" fill="white" transform="translate(0.379883)"></rect></clipPath></defs></svg>